<?xml version="1.0" standalone="no"?><!DOCTYPE svg PUBLIC "-//W3C//DTD SVG 1.1//EN" "http://www.w3.org/Graphics/SVG/1.1/DTD/svg11.dtd"><svg t="1515851750258" class="icon" style="" viewBox="0 0 1024 1024" version="1.1" xmlns="http://www.w3.org/2000/svg" p-id="2831" xmlns:xlink="http://www.w3.org/1999/xlink" width="128" height="128"><defs><style type="text/css"></style></defs><path d="M866.761 340.794c-52.013-62.534-48.384-116.197-100.050-218.515-34.464-68.16-89.627-90.278-118.291-90.278-28.454 0-54.489 62.437-68.217 104.506-16.686 50.995-36.481 76.014-68.256 76.014-31.737 0-51.571-25.017-68.217-76.014-13.709-42.106-39.763-104.506-68.179-104.506-28.666 0-83.827 22.080-118.272 90.278-51.685 102.317-48.019 155.982-100.033 218.515-131.328 157.882-166.195 460.397-40.915 551.059 121.824 88.224 337.844 104.544 395.712 104.544 57.888 0 273.926-16.339 395.693-104.544 125.26-90.624 90.374-393.138-40.973-551.059zM871.289 830.106c-79.834 92.236-327.456 99.764-359.289 99.764-31.814 0-279.456-7.526-359.289-99.744-100.073-115.565-31.41-316.071 36.403-394.291 75.629-87.283 218.631-114.029 322.886-114.029 104.294 0 247.277 26.746 322.963 114.029 67.757 78.258 136.416 278.726 36.325 394.272z" fill="#333303" p-id="2832"></path><path d="M707.571 706.611c-82.733 39.226-138.643 101.049-154.654 71.251-15.532-29.069 71.289-118.655 141.004-155.058 61.421-32.027 145.421-48.326 168.308-11.194 18.815 30.432-70.445 55.123-154.657 95.003zM316.448 706.611c-84.211-39.878-173.414-64.551-154.657-95.003 22.906-37.191 106.905-20.832 168.288 11.194 69.715 36.403 156.576 126.048 140.967 155.058-15.936 29.779-71.866-32.027-154.597-71.251z" fill="#333303" p-id="2833"></path></svg>