<?xml version="1.0" standalone="no"?><!DOCTYPE svg PUBLIC "-//W3C//DTD SVG 1.1//EN" "http://www.w3.org/Graphics/SVG/1.1/DTD/svg11.dtd"><svg t="1505993351034" class="icon" style="" viewBox="0 0 1024 1024" version="1.1" xmlns="http://www.w3.org/2000/svg" p-id="1254" xmlns:xlink="http://www.w3.org/1999/xlink" width="200" height="200"><defs><style type="text/css"></style></defs><path d="M330.632494 589.092906c-2.811899-3.280549-6.092449-6.092449-8.904348-9.372998l-1.40595-1.40595 0 0c-37.960641-44.053089-60.924485-101.697025-60.924485-164.49611 0-139.189016 112.944622-252.133638 252.133638-252.133638 139.189016 0 252.133638 112.944622 252.133638 252.133638 0 119.505721-82.95103 219.796796-194.958352 245.57254l139.657666 151.842563 104.977574-113.881922-0.46865 0c69.360183-74.046682 112.007323-173.869108 112.007323-283.064531C925.817849 185.116705 740.232494 0 512 0 283.298856 0 98.182151 185.116705 98.182151 413.817849c0 111.538673 44.053089 212.767048 116.225172 287.28238l298.061327 322.899771 109.664073-118.568421L330.632494 589.092906z" fill="#f04134" p-id="1255"></path><path d="M512 289.625629c-68.422883 0-124.19222 55.769336-124.19222 124.19222 0 30.462243 10.778947 58.112586 29.056293 79.670481l7.498398 8.435698c22.495195 22.026545 53.426087 36.086041 87.168879 36.086041 68.422883 0 124.19222-55.769336 124.19222-124.19222C636.19222 345.394966 580.422883 289.625629 512 289.625629z" fill="#f04134" p-id="1256"></path></svg>